<?xml version="1.0" standalone="no"?><!DOCTYPE svg PUBLIC "-//W3C//DTD SVG 1.1//EN" "http://www.w3.org/Graphics/SVG/1.1/DTD/svg11.dtd"><svg t="1696843119538" class="icon" viewBox="0 0 1024 1024" version="1.1" xmlns="http://www.w3.org/2000/svg" p-id="4031" xmlns:xlink="http://www.w3.org/1999/xlink" width="200" height="200"><path d="M335.658 831.866c0 10.135 0 20.27 0.202 30.404 0 2.189 0 4.337-0.202 6.405z m352.36-679.1v345.388c-0.243-110.427-0.77-220.894-0.892-331.321a117.561 117.561 0 0 1 0.892-14.067z" fill="#93CEAA" p-id="4032"></path><path d="M687.086 508.49a68.51 68.51 0 0 0 0.932-10.336v322.929L518.81 666.348l-85.13-77.632-51.24-47.105-22.783-20.797-8.392-7.661-0.608-0.527c-2.067-1.662-4.054-3.405-5.96-4.986s-3.567-2.96-5.837-2.27a5.067 5.067 0 0 0-3.202 3.648V204.979l1.743 1.581 34.741 31.418c18.283 16.215 36.728 32.43 54.97 48.646q38.917 34.863 77.591 70.131 30.607 27.81 61.132 55.7c24.323 22.175 48.322 44.593 72.645 66.605 10.945 9.891 21.972 19.58 33.039 29.31 2.351 2.067 4.662 4.053 7.053 6.161a5.96 5.96 0 0 0 5.676 0.73 4.702 4.702 0 0 0 2.27-2.919c0.324-1.54 0.324-2.594 0.568-3.851z" fill="#4C9717" p-id="4033"></path><path d="M335.293 510.802a63.524 63.524 0 0 0-0.405 11.107c0 103.373 0 206.746 0.77 310.079v36.809a60.2 60.2 0 0 1-23.796 44.957c-27.607 23.066-53.349 48.28-79.983 72.523-11.148 10.135-22.215 20.27-33.687 30.16s-40.984 11.108-57.321-2.553a318.146 318.146 0 0 1-34.62-35.107A51.727 51.727 0 0 1 91.13 943.55c0-2.918-0.243-6.12 0-9.648 0-6.08 0-12.161 0.203-18.283 0.202-17.431 0-34.903 0-52.335v-568.51a51.24 51.24 0 0 1 1.54-12.892 74.672 74.672 0 0 1 4.054-10.702 89.833 89.833 0 0 1 8.189-14.513l64.861-64.862 41.309-41.268a31.782 31.782 0 0 1 7.459-5.594 32.633 32.633 0 0 1 13.013-4.054 56.146 56.146 0 0 1 39.363 7.257 55.092 55.092 0 0 1 8.472 6.364l56.065 50.349v304.038a13.702 13.702 0 0 0-0.365 1.906z" fill="#5FBC21" p-id="4034"></path><path d="M335.293 510.802a13.702 13.702 0 0 1 0.365-1.663v322.727c-0.608-103.373-0.568-206.746-0.77-310.079a63.524 63.524 0 0 1 0.405-10.985z" fill="#E8CEAA" p-id="4035"></path><path d="M924.357 758.937L805.215 868.391a15.202 15.202 0 0 1-1.46 0.973l-0.446 0.324-0.81 0.487a56.754 56.754 0 0 1-67.943-6.689l-7.175-6.283-39.525-36.12V152.766c0.648-5.635 1.621-11.27 2.716-16.783 2.838-14.391 15.486-21.526 25.134-30.525 20.958-19.459 42.565-38.188 63.929-57.24 14.715-13.135 29.39-26.31 44.227-39.364 12.932-11.39 37.985-10.823 50.146-3.77a40.984 40.984 0 0 1 8.432 6.527l13.702 13.216 11.067 10.58 10.094 9.77a46.417 46.417 0 0 1 7.216 8.472 47.552 47.552 0 0 1 6.892 26.188c-0.203 59.43 0.243 118.859 0.365 178.37q0.364 151.41 0.648 302.822 0 77.59 0.284 155.14v7.094c0.608 15.405 0.284 25.58-8.35 35.674z" fill="#5FBC21" p-id="4036"></path></svg>